<svg version="1.2" xmlns="http://www.w3.org/2000/svg" viewBox="0 0 981 801" width="981" height="801">
	<title>LogoHackathon</title>
	<defs>
		<linearGradient id="g1" x2="1" gradientUnits="userSpaceOnUse" gradientTransform="matrix(0,-557.038,608,0,492,613)">
			<stop offset="0" stop-color="#fa5893"/>
			<stop offset=".492" stop-color="#e1a2dc"/>
			<stop offset="1" stop-color="#7b20a9"/>
		</linearGradient>
	</defs>
	<style>
		.s0 { fill: url(#g1) } 
		.s1 { fill: #000000 } 
	</style>
	<path id="Forma 2" fill-rule="evenodd" class="s0" d="m384 519h-68.2c-7.5 27.7-32.7 48-62.8 48-35.9 0-65-29.1-65-65 0-35.9 29.1-65 65-65 30.8 0 56.5 21.3 63.3 50h32.7v-26.8q-7.6-5.3-14.5-11.4-0.1-0.1-0.1-0.1-2.2-1.8-4-3.7c-32.3-30.5-52.5-73.7-52.5-121.6 0-10.2 0.8-20.4 2.6-30.4 2.7-15 7.4-29.6 14.1-43.2q0.2-0.4 0.4-0.8h-24v-63.7c-28.7-6.8-50-32.5-50-63.3 0-35.9 29.1-65 65-65 35.9 0 65 29.1 65 65 0 30.8-21.3 56.5-50 63.3v28.7h17.5q0.3-0.4 0.7-0.8c9.8-11 21.3-20.2 33.5-28.3 77.5-51.5 172.5-24.7 200.7 58.5 15.1 44.4 11.3 108.5-17.4 145.6-18.3 23.7-46.7 39.2-76.5 41.8-32.5 2.9-66.8-10.5-86-36.9-12.7-17.5-18.4-40-15.4-61.4 3-21.5 14.7-41.6 31.7-54.9 12.4-9.7 28.1-15.9 43.8-14.6 22.4 1.8 42.3 20.1 46 42.2 3.8 22-9 45.9-29.4 55-7.6 3.3-16.2 4.8-24.3 3.1-14.3-3-25.6-16.6-25.8-31.2-0.3-12.3 6.6-21.2 18.2-29.7-2.2-2.7-9.3-12.9-13.8-19.7-5.4 4.5-7.4 7-10.9 10.6-16.9 17-20 45.8-7.5 66.3 12.5 20.4 39 30.9 62.3 25.2 19.3-4.9 37.4-18.3 46.8-35.9 9.5-17.5 11.1-39 12.3-59 1.2-18.3 5.9-55.1-1.5-71.9-7.7-17.4-18.1-22.3-35.8-29.6-17.6-7.3-56.4-7.3-74 0-11.6 4.8-31.5 15.6-39.4 36.9-7.9 21.1-15.6 60-18.7 82.5-3.3 24.2-4.7 49.5 3.3 72.6 9.8 28.7 33.7 51.5 61.7 63.1 30.8 12.9 66.8 12.7 97.6-0.1 30.9-12.8 56.3-38 69.7-68.6 10.3-23.5 13.8-49.4 14.6-75.7h20.6v-23.8h-20.4c-0.4-21.8-1.7-43.6-1.7-64.3 0 0 0-9.5 0-22.6h22.1v-44.2h-22.1c-0.1-18.9-0.1-34.4-0.1-34.4 0 0 0-6.6 0.1-9.7h-44.2v33.3h-33.3v-33.3h33.3v-44.1h44.2v44.1c5.9 4.1 11.4 8.6 16.7 13.4v-7.2h16.7v16.7h-7c8.9 9.2 16.9 19.2 24.4 29.7q2.3 3.3 4.4 6.7v-15.2h33.3v26.4c10.4-22.2 32.9-37.6 59-37.6 35.9 0 65 29.1 65 65 0 31.1-21.8 57.1-51 63.5v60.5h-78q-0.9 3.8-1.9 7.6c-9.8 36.5-28.6 69.3-53.4 95.4h16.3v59.7c28.7 6.8 50 32.5 50 63.3 0 35.9-29.1 65-65 65-35.9 0-65-29.1-65-65 0-30.1 20.3-55.3 48-62.8v-25.2h-27.4q-8.7 5.3-17.9 9.8c-35.1 16.8-72 24.2-114.2 21.3-10.5-0.8-20.2-2.5-29.4-4.9q-11.9-2.8-23.1-7.2zm265-341.5c16.6 33.2 24.7 71.8 22.8 109.5h42.2v-26.2c-27.7-7.5-48-32.7-48-62.8 0-7.2 1.2-14 3.3-20.5zm5.8 38.3h-33.3v33.3h33.3zm-117.3-71.6h23.8v23.9h-23.8zm-222.5-21.8c0-16.3-13.2-29.5-29.5-29.5-16.4 0-29.5 13.2-29.5 29.5 0 16.3 13.1 29.5 29.5 29.5 16.3 0 29.5-13.2 29.5-29.5zm444 75c0-16.3-13.2-29.5-29.5-29.5-16.4 0-29.5 13.2-29.5 29.5 0 16.3 13.1 29.5 29.5 29.5 16.3 0 29.5-13.2 29.5-29.5zm-117 352c0-16.3-13.2-29.5-29.5-29.5-16.4 0-29.5 13.2-29.5 29.5 0 16.3 13.1 29.5 29.5 29.5 16.3 0 29.5-13.2 29.5-29.5zm-360-47c0-16.3-13.2-29.5-29.5-29.5-16.4 0-29.5 13.2-29.5 29.5 0 16.3 13.1 29.5 29.5 29.5 16.3 0 29.5-13.2 29.5-29.5z"/>
	<path id="EduHackFest: Beyond education wi" fill-rule="evenodd" class="s1" d="m310.8 651.8v5.7h7.5c1 0 1.9 0.9 1.9 1.9v3.3c0 1.1-0.9 1.9-1.9 1.9h-7.5v7.1h10.4c1 0 1.9 0.9 1.9 2v3.3c0 1.2-0.9 2-1.9 2h-14.8c-1.6 0-2.8-1.4-2.8-2.9v-28.7c0-0.8 0.3-1.5 0.9-2.1 0.5-0.6 1.2-0.8 1.9-0.8h14.8c1 0 1.9 0.8 1.9 1.9v3.4c0 1.1-0.9 2-1.9 2zm43.1 13.5c0 7.3-5.4 13.7-12.9 13.7h-8.5c-1.6 0-2.8-1.4-2.8-2.9v-28.7c0-0.8 0.3-1.5 0.8-2.1 0.5-0.6 1.3-0.8 2-0.8h8.5c7.5 0 12.9 6.4 12.9 13.7zm-7.2-7.3c0-3.3-2.5-6.3-5.9-6.3h-3.9v19.9h3.9c3.4 0 5.9-3 5.9-6.3zm40.5 7.7c0 7.3-4.7 13.9-12.4 13.9-7.7 0-12.4-6.6-12.4-13.9v-19.3c0-1.1 0.8-1.9 1.9-1.9h3.4c1 0 1.8 0.8 1.8 1.9v19.6c0 3.8 2.1 6.2 5.3 6.2 3.6 0 5.3-3 5.3-6.2v-19.6c0-1.1 0.8-1.9 1.8-1.9h3.5c1 0 1.8 0.8 1.8 1.9zm32.5-21.5c1 0 1.8 0.9 1.8 2v30.8c0 1.2-0.8 2-1.8 2h-3.5c-1 0-1.8-0.8-1.8-2v-12.2h-11.1v12.2c0 1.2-0.8 2-1.8 2h-3.5c-1 0-1.9-0.8-1.9-2v-30.8c0-1.1 0.9-2 1.9-2h3.5c1 0 1.8 0.9 1.8 2v11.4h11.1v-11.4c0-1.1 0.8-2 1.8-2zm35.3 32.1c0 0.2 0.1 0.4 0.1 0.7 0 1.1-0.9 2-2 2h-3.1c-1.1 0-1.9-0.7-2.2-1.8l-1.8-5.8h-8.8l-1.7 5.8c-0.3 1.1-1.2 1.8-2.2 1.8h-3.1c-1.1 0-1.9-0.9-1.9-2 0-0.3 0-0.5 0.1-0.7l9.3-30.4c0.3-1 1.2-1.7 2.3-1.7h3.4c1 0 1.9 0.7 2.2 1.7zm-13.4-19.9l-2.3 7.9h4.6zm40.7 15.9c0.4 0.4 0.6 1 0.6 1.6q0 0.7-0.4 1.3c-2.4 2.9-5.8 4.4-9.6 4.4-7 0-12.2-6.2-12.2-13v-9.7c0-6.8 5.2-13 12.2-13 3.9 0 7.3 1.5 9.5 4.4 0.3 0.4 0.5 0.9 0.5 1.4 0 0.5-0.2 1-0.5 1.5l-2 2.2c-0.4 0.4-0.9 0.6-1.4 0.6-0.4 0-0.9-0.1-1.4-0.7q-1.8-2.1-4.7-2.1c-2.6 0-5 2.7-5 5.7v9.7c0 3.1 2.4 5.7 5 5.7q2.9 0 4.7-2c0.5-0.7 1-0.8 1.4-0.8 0.4 0 0.9 0.1 1.4 0.7zm9.1 6.7c-1 0-1.9-0.8-1.9-1.9v-30.7c0-1.1 0.9-2 1.9-2h3.4c1.1 0 1.9 0.9 1.9 2v11.9h0.1l9.6-12.8c0.5-0.7 1.2-1.1 2.1-1.1h3.9c1 0 1.8 0.8 1.8 1.9q0 0.5-0.4 1.1l-10.8 14.1 10.9 14.6c0.2 0.3 0.3 0.7 0.3 1.1 0 1.1-0.7 1.8-1.8 1.8h-4q-1.2 0-2-1l-9.5-12.6h-0.2v11.7c0 1.1-0.8 1.9-1.9 1.9zm46.8-34.7c1.1 0 1.9 0.8 1.9 1.9v3.4c0 1.1-0.8 2-1.9 2h-10.5v6.6h7.6c1.1 0 1.9 0.8 1.9 1.9v3.3c0 1.1-0.8 1.9-1.9 1.9h-7.6v11.7c0 1.2-0.7 2-1.8 2h-3.4c-1.1 0-1.9-0.8-1.9-2v-29.8c0-1.5 1.2-2.9 2.8-2.9zm13.7 7.4v5.8h7.5c1 0 1.9 0.9 1.9 1.9v3.3c0 1.1-0.9 1.9-1.9 1.9h-7.5v7.1h10.4c1 0 1.9 0.9 1.9 2v3.3c0 1.2-0.9 2-1.9 2h-14.8c-1.6 0-2.7-1.4-2.7-2.9v-28.7c0-0.8 0.2-1.5 0.8-2.1 0.5-0.6 1.2-0.9 1.9-0.9h14.8c1 0 1.9 0.9 1.9 2v3.4c0 1.1-0.9 1.9-1.9 1.9zm31.8 17.6c-0.1-1.9-0.9-2.4-4.9-4.1l-1.3-0.6c-4.6-2.1-7.5-4.9-7.5-10.3 0-6.1 4.3-10.4 10.3-10.4 3.3 0 6.6 1.2 9.2 3.2 0.7 0.5 0.9 1.6 0.5 2.3l-1.4 2.9c-0.3 0.7-0.9 1.1-1.6 1.1q-0.6 0-1.1-0.3h-0.1c-2.5-1.7-4.5-2-5.4-2-2.1 0-3.3 1.1-3.3 3 0 1.5 0.7 2.6 4.6 4.4 0.2 0 0.8 0.3 3 1.2 3.9 1.7 6.2 5.1 6.2 9.2 0 6.5-4.9 10.7-11.1 10.7-3.2 0-6.5-1.1-9.4-3.2-0.7-0.4-0.9-1.5-0.5-2.3l1.5-2.9c0.3-0.7 0.9-1.1 1.6-1.1 0.4 0 0.8 0.1 1.1 0.4h0.1c2 1.3 3.9 2 5.5 2 2.5 0 4-1.2 4-3.2zm35.8-19.5c0 1.1-0.9 1.9-1.9 1.9h-6.3v25.3c0 1.2-0.8 2-1.9 2h-3.4c-1 0-1.9-0.8-1.9-2v-25.3h-6.3c-1 0-1.9-0.8-1.9-1.9v-3.4c0-1.1 0.9-2 1.9-2h19.8c1 0 1.9 0.9 1.9 2zm8.8 29.2c-0.6 0-1-0.4-1-1v-6c0-0.6 0.4-1.1 1-1.1h4.2c0.6 0 1 0.5 1 1.1v6c0 0.6-0.4 1-1 1zm0-19c-0.6 0-1-0.4-1-1v-6.1c0-0.5 0.4-1 1-1h4.2c0.6 0 1 0.5 1 1v6.1c0 0.6-0.4 1-1 1zm-541.2 73h-8.2c-1.5 0-2.6-1.2-2.6-2.7v-26.3c0-0.7 0.3-1.4 0.8-1.9 0.5-0.5 1.1-0.8 1.8-0.8h7c5.1 0 9 4.3 9 9.3 0 1.9-0.6 3.6-1.9 5 2.6 1.7 3.7 4.4 3.7 7.4 0 5.3-4.1 10-9.6 10zm-4.3-13.3v6.7h4.1c2.1 0 3.3-1.4 3.3-3.4 0-1.9-1.4-3.3-3.3-3.3zm2.8-11.9h-2.8v5.6h2.8c1.4 0 2.8-1.3 2.8-2.8 0-1.5-1.3-2.8-2.8-2.8zm24.4 0.2v5.3h6.9c1 0 1.7 0.8 1.7 1.8v3c0 1-0.7 1.7-1.7 1.7h-6.9v6.5h9.6c0.9 0 1.7 0.8 1.7 1.8v3.1c0 1-0.8 1.8-1.7 1.8h-13.6c-1.4 0-2.5-1.2-2.5-2.7v-26.3c0-0.7 0.2-1.4 0.7-1.9 0.5-0.5 1.2-0.8 1.8-0.8h13.6c0.9 0 1.7 0.8 1.7 1.8v3.1c0 1-0.8 1.8-1.7 1.8zm38.3-6.7c1.1 0 1.9 0.8 1.9 1.8 0 0.4-0.2 0.8-0.3 1.1l-8.3 14.5v12.5c0 1-0.7 1.8-1.7 1.8h-3.1c-1 0-1.8-0.8-1.8-1.8v-12.5l-8.2-14.5c-0.2-0.3-0.3-0.7-0.3-1.1 0-1 0.8-1.8 1.8-1.8h3.3c0.7 0 1.2 0.3 1.6 0.9l5.1 9.5 5.2-9.5c0.3-0.6 0.9-0.9 1.5-0.9zm29.5 20.3c0 6.4-4.8 12-11.4 12-6.5 0-11.4-5.6-11.4-12v-8.9c0-6.3 4.9-11.9 11.4-11.9 6.5 0 11.4 5.6 11.4 11.9zm-6.6-8.9c0-2.6-2-5.2-4.8-5.2-2.7 0-4.8 2.6-4.8 5.2v8.9c0 2.6 2.1 5.3 4.8 5.3 2.8 0 4.8-2.6 4.8-5.3zm20.3 1.7v16.8c0 1-0.7 1.8-1.7 1.8h-2.9c-0.9 0-1.7-0.8-1.7-1.8v-27.8c0-1.2 0.9-2.1 2.1-2.1h3.2c0.8 0 1.4 0.3 1.8 1l9.9 17.6v-16.8c0-1 0.7-1.8 1.7-1.8h2.8c1 0 1.7 0.8 1.7 1.8v27.8c0 1.2-0.9 2.1-2 2.1h-3.3c-0.7 0-1.3-0.3-1.8-1zm47.4 6c0 6.7-4.9 12.6-11.8 12.6h-7.8c-1.5 0-2.6-1.3-2.6-2.7v-26.4c0-0.7 0.3-1.4 0.8-1.9 0.4-0.5 1.1-0.8 1.8-0.8h7.8c6.9 0 11.8 5.9 11.8 12.6zm-6.6-6.7c0-3-2.3-5.7-5.4-5.7h-3.6v18.3h3.6c3.1 0 5.4-2.8 5.4-5.8zm31.5-5.8v5.3h6.9c0.9 0 1.7 0.8 1.7 1.8v3c0 1-0.8 1.8-1.7 1.8h-6.9v6.4h9.6c0.9 0 1.7 0.8 1.7 1.8v3.1c0 1.1-0.8 1.8-1.7 1.8h-13.6c-1.5 0-2.6-1.2-2.6-2.7v-26.3c0-0.7 0.3-1.4 0.8-1.9 0.5-0.5 1.1-0.8 1.8-0.8h13.6c0.9 0 1.7 0.8 1.7 1.8v3.1c0 1-0.8 1.8-1.7 1.8zm40.3 12.5c0 6.7-4.9 12.5-11.9 12.5h-7.7c-1.5 0-2.6-1.2-2.6-2.7v-26.3c0-0.7 0.3-1.4 0.8-1.9 0.4-0.5 1.1-0.8 1.8-0.8h7.7c7 0 11.9 5.9 11.9 12.6zm-6.6-6.7c0-3-2.3-5.7-5.4-5.7h-3.6v18.3h3.6c3.1 0 5.4-2.8 5.4-5.8zm37.2 7c0 6.7-4.3 12.8-11.4 12.8-7 0-11.4-6.1-11.4-12.8v-17.7c0-1 0.8-1.8 1.7-1.8h3.2c0.9 0 1.7 0.8 1.7 1.8v18c0 3.5 1.9 5.7 4.8 5.7 3.3 0 4.9-2.7 4.9-5.7v-18c0-1 0.7-1.8 1.7-1.8h3.2c0.9 0 1.6 0.8 1.6 1.8zm27.2 6c0.4 0.4 0.6 0.9 0.6 1.5q0 0.6-0.4 1.2h-0.1c-2.1 2.6-5.3 4.1-8.7 4.1-6.5 0-11.2-5.8-11.2-12v-8.9c0-6.3 4.8-11.9 11.2-11.9 3.5 0 6.6 1.4 8.7 4 0.3 0.3 0.4 0.8 0.4 1.3 0 0.4-0.1 0.9-0.5 1.4l-1.8 2c-0.4 0.4-0.8 0.5-1.2 0.5-0.4 0-0.9 0-1.4-0.6q-1.6-1.9-4.2-1.9c-2.5 0-4.6 2.4-4.6 5.2v8.9c0 2.8 2.1 5.3 4.6 5.3q2.6 0 4.2-1.9c0.5-0.6 1-0.7 1.3-0.7 0.4 0 0.9 0.1 1.3 0.6zm29.5 3.7c0.1 0.2 0.1 0.3 0.1 0.6 0 1-0.8 1.9-1.8 1.9h-2.9c-0.9 0-1.7-0.7-2-1.7l-1.6-5.3h-8.1l-1.5 5.3c-0.4 1-1.2 1.7-2.1 1.7h-2.8c-1 0-1.8-0.9-1.8-1.9 0-0.3 0-0.4 0.1-0.6l8.6-27.9c0.3-1 1.1-1.6 2.1-1.6h3.1c0.9 0 1.7 0.6 2 1.6zm-12.3-18.3l-2.1 7.3h4.2zm38.3-6.1c0 1-0.8 1.8-1.7 1.8h-5.9v23.2c0 1-0.7 1.8-1.7 1.8h-3.1c-1 0-1.7-0.8-1.7-1.8v-23.2h-5.8c-1 0-1.7-0.8-1.7-1.8v-3.1c0-1.1 0.7-1.8 1.7-1.8h18.2c0.9 0 1.7 0.7 1.7 1.8zm18.2-5.1c0.9 0 1.7 0.8 1.7 1.8v2.9c0 1-0.8 1.8-1.7 1.8h-2.5v18.9h2.5c0.9 0 1.7 0.8 1.7 1.8v2.9c0 1-0.8 1.8-1.7 1.8h-11.7c-0.9 0-1.7-0.8-1.7-1.8v-2.9c0-1 0.8-1.8 1.7-1.8h2.6v-18.9h-2.6c-0.9 0-1.7-0.8-1.7-1.8v-2.9c0-1 0.8-1.8 1.7-1.8zm30 20.5c0 6.4-4.9 12-11.4 12-6.6 0-11.4-5.6-11.4-12v-8.9c0-6.3 4.9-11.9 11.4-11.9 6.5 0 11.4 5.6 11.4 11.9zm-6.6-8.9c0-2.7-2-5.2-4.8-5.2-2.8 0-4.8 2.5-4.8 5.2v8.9c0 2.6 2 5.3 4.8 5.3 2.8 0 4.8-2.6 4.8-5.3zm20.2 1.7v16.8c0 1-0.7 1.8-1.7 1.8h-2.8c-1 0-1.7-0.8-1.7-1.8v-27.8c0-1.2 0.9-2.1 2-2.1h3.2c0.8 0 1.4 0.3 1.8 1l9.9 17.6v-16.8c0-1.1 0.8-1.8 1.7-1.8h2.9c0.9 0 1.7 0.7 1.7 1.8v27.8c0 1.2-0.9 2.1-2.1 2.1h-3.3c-0.7 0-1.3-0.4-1.8-1zm74.3-13.2c0.5 0 1 0.3 1.3 0.7 0.3 0.4 0.4 1 0.2 1.6l-7.9 28.1c-0.2 0.9-1 1.4-1.9 1.4h-3.8c-0.8 0-1.5-0.6-1.8-1.4l-4.6-17.3-4.6 17.3c-0.2 0.9-1 1.4-1.9 1.4h-3.8c-0.8 0-1.5-0.6-1.8-1.4l-7.7-28.1q-0.1-0.3-0.1-0.5c0-1 0.8-1.8 1.7-1.8h3.1c0.8 0 1.6 0.7 1.8 1.5l5.1 18.5 4.9-18.5c0.2-0.8 1-1.5 1.8-1.5h3.1c0.8 0 1.6 0.7 1.8 1.5l5.1 18.5 4.9-18.5c0.2-0.8 1-1.5 1.8-1.5zm22.1-0.2c0.9 0 1.7 0.9 1.7 1.8v2.9c0 1.1-0.8 1.8-1.7 1.8h-2.6v19h2.6c0.9 0 1.7 0.8 1.7 1.8v2.8c0 1.1-0.8 1.8-1.7 1.8h-11.7c-0.9 0-1.7-0.7-1.7-1.8v-2.8c0-1 0.8-1.8 1.7-1.8h2.5v-19h-2.5c-0.9 0-1.7-0.7-1.7-1.8v-2.9c0-0.9 0.8-1.8 1.7-1.8zm27.3 5.1c0 1-0.8 1.8-1.7 1.8h-5.8v23.2c0 1.1-0.8 1.8-1.7 1.8h-3.2c-0.9 0-1.7-0.7-1.7-1.8v-23.2h-5.8c-1 0-1.7-0.8-1.7-1.8v-3.1c0-1 0.7-1.8 1.7-1.8h18.2c0.9 0 1.7 0.8 1.7 1.8zm27.9-5.1c1 0 1.7 0.8 1.7 1.8v28.3c0 1.1-0.7 1.8-1.7 1.8h-3.2c-1 0-1.7-0.7-1.7-1.8v-11.2h-10.2v11.2c0 1.1-0.7 1.8-1.6 1.8h-3.2c-1 0-1.7-0.7-1.7-1.8v-28.3c0-1 0.7-1.8 1.7-1.8h3.2c0.9 0 1.6 0.8 1.6 1.8v10.5h10.2v-10.5c0-1 0.7-1.8 1.7-1.8zm43.5 3.1l-7.9 13.1 7.7 12.9c0.2 0.2 0.3 0.6 0.3 1 0 1-0.8 1.8-1.8 1.8h-3.5c-0.6 0-1.2-0.3-1.6-0.9l-4.9-8.3-5 8.3c-0.4 0.6-1 0.9-1.6 0.9h-3.5c-1 0-1.8-0.8-1.8-1.8 0-0.4 0.1-0.8 0.3-1l7.7-12.9-7.9-13.1c-0.2-0.3-0.3-0.7-0.3-1 0-1.1 0.8-1.9 1.8-1.9h3.5c0.6 0 1.3 0.4 1.6 0.9l5.2 8.7 5.2-8.7c0.2-0.5 0.9-0.9 1.5-0.9h3.5c1 0 1.8 0.8 1.8 1.9 0 0.3-0.1 0.7-0.3 1zm20.8 16.2l6.1 9.9c0.1 0.3 0.2 0.6 0.2 0.9 0 1.1-0.7 1.8-1.7 1.8h-3.3c-0.7 0-1.3-0.3-1.7-0.9l-6.4-10.8h-0.6v9.9c0 1.1-0.8 1.8-1.7 1.8h-3.2c-0.9 0-1.7-0.7-1.7-1.8v-27.2c0-0.7 0.3-1.4 0.8-1.9 0.5-0.5 1.1-0.8 1.8-0.8h7.4c5.5 0 9.7 4.6 9.7 10 0 4-2.2 7.5-5.7 9.1zm-7.4-12.5v6.8h3.2c1.9 0 3.3-1.4 3.3-3.3 0-2-1.3-3.5-3.3-3.5zm54 22.7c0.1 0.1 0.1 0.3 0.1 0.6 0 1-0.8 1.8-1.8 1.8h-2.8c-1 0-1.8-0.6-2.1-1.6l-1.6-5.3h-8l-1.6 5.3c-0.3 1-1.1 1.6-2.1 1.6h-2.8c-1 0-1.8-0.8-1.8-1.8 0-0.3 0.1-0.5 0.1-0.6l8.6-27.9c0.3-1 1.1-1.6 2.1-1.6h3.1c0.9 0 1.7 0.6 2 1.6zm-12.2-18.3l-2.1 7.2h4.1zm24.7 2.2v16.8c0 1-0.7 1.8-1.7 1.8h-2.8c-0.9 0-1.7-0.8-1.7-1.8v-27.8c0-1.2 0.9-2.1 2-2.1h3.3c0.7 0 1.3 0.3 1.8 1l9.8 17.6v-16.8c0-1.1 0.8-1.8 1.7-1.8h2.9c0.9 0 1.7 0.7 1.7 1.8v27.8c0 1.1-0.9 2.1-2.1 2.1h-3.2c-0.8 0-1.4-0.4-1.8-1zm47.3 6c0 6.7-4.9 12.5-11.8 12.5h-7.8c-1.5 0-2.5-1.2-2.5-2.7v-26.3c0-0.7 0.2-1.4 0.7-1.9 0.5-0.5 1.1-0.8 1.8-0.8h7.8c6.9 0 11.8 5.9 11.8 12.6zm-6.5-6.7c0-3-2.4-5.8-5.5-5.8h-3.6v18.4h3.6c3.1 0 5.5-2.8 5.5-5.8zm47.7 16.7c0 0.2 0 0.4 0 0.7 0 1-0.8 1.8-1.8 1.8h-2.8c-1 0-1.8-0.6-2.1-1.6l-1.6-5.4h-8l-1.6 5.4c-0.3 1-1.1 1.6-2.1 1.6h-2.8c-1 0-1.8-0.8-1.8-1.8 0-0.3 0-0.5 0.1-0.7l8.6-27.9c0.3-0.9 1.1-1.5 2.1-1.5h3.1c0.9 0 1.8 0.6 2 1.5zm-12.3-18.2l-2.1 7.2h4.3zm30.3-11.1c0.9 0 1.7 0.8 1.7 1.8v2.8c0 1.1-0.8 1.8-1.7 1.8h-2.5v19h2.5c0.9 0 1.7 0.8 1.7 1.8v2.9c0 1-0.8 1.8-1.7 1.8h-11.7c-0.9 0-1.7-0.8-1.7-1.8v-2.9c0-1 0.8-1.8 1.7-1.8h2.6v-19h-2.6c-0.9 0-1.7-0.7-1.7-1.8v-2.8c0-1 0.8-1.8 1.7-1.8z"/>
</svg>